<svg width="40" height="40" viewBox="0 0 40 40" fill="none" xmlns="http://www.w3.org/2000/svg">
<rect width="40" height="40" rx="4" fill="#299DD7"/>
<circle cx="20" cy="20" r="17" fill="white"/>
<path d="M20 0.625C23.5938 0.677083 26.849 1.5625 29.7656 3.28125C32.6823 5 35 7.31771 36.7188 10.2344C38.4375 13.151 39.3229 16.4062 39.375 20C39.3229 23.5938 38.4375 26.849 36.7188 29.7656C35 32.6823 32.6823 35 29.7656 36.7188C26.849 38.4375 23.5938 39.3229 20 39.375C16.4062 39.3229 13.151 38.4375 10.2344 36.7188C7.31771 35 5 32.6823 3.28125 29.7656C1.5625 26.849 0.677083 23.5938 0.625 20C0.677083 16.4062 1.5625 13.151 3.28125 10.2344C5 7.31771 7.31771 5 10.2344 3.28125C13.151 1.5625 16.4062 0.677083 20 0.625ZM28.9844 13.8281C28.9844 13.5677 28.9844 13.3073 28.9844 13.0469C28.9323 12.8385 28.8281 12.6562 28.6719 12.5C28.4115 12.3438 28.151 12.2656 27.8906 12.2656C27.6302 12.2656 27.0052 12.4479 26.0156 12.8125C25.0781 13.125 23.3073 13.8281 20.7031 14.9219C18.8281 15.7031 15.0521 17.3177 9.375 19.7656C8.48958 20.1302 8.02083 20.4948 7.96875 20.8594C7.96875 21.3802 8.51562 21.7708 9.60938 22.0312C9.76562 22.0312 9.92188 22.0573 10.0781 22.1094C10.5469 22.3177 11.0677 22.474 11.6406 22.5781C12.2135 22.7344 12.6823 22.8125 13.0469 22.8125C13.6719 22.8646 14.375 22.6302 15.1562 22.1094C20.4167 18.5156 23.151 16.6927 23.3594 16.6406C23.4635 16.5885 23.5938 16.6146 23.75 16.7188C23.8542 16.875 23.8802 16.9792 23.8281 17.0312C23.724 17.2917 23.151 17.8906 22.1094 18.8281C21.1198 19.8177 20.2083 20.7031 19.375 21.4844C18.8542 21.901 18.5677 22.1615 18.5156 22.2656C18.3594 22.4219 18.2031 22.5781 18.0469 22.7344C17.526 23.151 17.2135 23.5677 17.1094 23.9844C16.9531 24.349 17.2656 24.8177 18.0469 25.3906C18.8281 25.8594 19.5312 26.3021 20.1562 26.7188C20.7812 27.1875 21.5365 27.7083 22.4219 28.2812C22.6302 28.4375 22.8385 28.5938 23.0469 28.75C23.8281 29.375 24.6354 29.6875 25.4688 29.6875C26.0417 29.7396 26.4844 29.0885 26.7969 27.7344C27.0052 26.5365 27.2656 25.0521 27.5781 23.2812C27.8906 21.5104 28.1771 19.7656 28.4375 18.0469C28.6979 16.276 28.8802 14.8698 28.9844 13.8281Z" fill="#299DD7"/>
</svg>
