<svg width="40" height="40" viewBox="0 0 40 40" fill="none" xmlns="http://www.w3.org/2000/svg">
<rect width="40" height="40" rx="4" fill="#0277FE"/>
<path d="M10.9531 11C12.4062 9.5 14.7969 9.5 19.5781 9.5H20.375C25.1562 9.5 27.5469 9.5 29 11C30.5 12.4531 30.5 14.8438 30.5 19.625V20.4219C30.5 25.2031 30.5 27.5938 29 29.0469C27.5469 30.5 25.1562 30.5 20.375 30.5H19.5781C14.7969 30.5 12.4062 30.5 10.9531 29.0469C9.5 27.5938 9.5 25.2031 9.5 20.4219V19.625C9.5 14.8438 9.5 12.4531 10.9531 11ZM13.0156 15.9219C13.1562 21.3594 15.875 24.6406 20.6562 24.6406H20.9375V21.5469C21.7812 21.6406 22.5781 21.9688 23.1875 22.5312C23.8438 23.0938 24.3125 23.8438 24.5469 24.6406H27.0312C26.7969 23.7031 26.3281 22.8125 25.7188 22.0625C25.0625 21.3125 24.3125 20.7031 23.4219 20.2812C24.2188 19.8125 24.875 19.1562 25.4375 18.4062C25.9531 17.6562 26.3281 16.8125 26.5156 15.9219H24.2656C23.75 17.6562 22.2969 19.2031 20.9375 19.3438V15.9219H18.6875V21.9688C17.2812 21.5938 15.5 19.9062 15.4062 15.9219H13.0156Z" fill="white"/>
</svg>
