<svg width="24" height="24" viewBox="0 0 24 24" fill="none" xmlns="http://www.w3.org/2000/svg">
<path d="M14.25 1.125C14.3125 0.4375 14.6875 0.0625 15.375 0H22.875C23.5625 0.0625 23.9375 0.4375 24 1.125V8.625C23.9375 9.3125 23.5625 9.6875 22.875 9.75C22.1875 9.6875 21.8125 9.3125 21.75 8.625V3.84375L11.2969 14.2969C10.7656 14.7344 10.2344 14.7344 9.70312 14.2969C9.26562 13.7656 9.26562 13.2344 9.70312 12.7031L20.1562 2.25H15.375C14.6875 2.1875 14.3125 1.8125 14.25 1.125ZM3.375 1.5H9.375C10.0625 1.5625 10.4375 1.9375 10.5 2.625C10.4375 3.3125 10.0625 3.6875 9.375 3.75H3.375C2.6875 3.8125 2.3125 4.1875 2.25 4.875V20.625C2.3125 21.3125 2.6875 21.6875 3.375 21.75H19.125C19.8125 21.6875 20.1875 21.3125 20.25 20.625V14.625C20.3125 13.9375 20.6875 13.5625 21.375 13.5C22.0625 13.5625 22.4375 13.9375 22.5 14.625V20.625C22.4688 21.5938 22.1406 22.3906 21.5156 23.0156C20.8906 23.6406 20.0938 23.9688 19.125 24H3.375C2.40625 23.9688 1.60938 23.6406 0.984375 23.0156C0.359375 22.3906 0.03125 21.5938 0 20.625V4.875C0.03125 3.90625 0.359375 3.10937 0.984375 2.48438C1.60938 1.85938 2.40625 1.53125 3.375 1.5Z" fill="#FF6D49"/>
</svg>
