<svg width="27" height="25" viewBox="0 0 27 25" fill="none" xmlns="http://www.w3.org/2000/svg">
<path d="M13.5 0C13.9688 0.03125 14.3125 0.25 14.5312 0.65625L17.7188 7.26562L24.8906 8.34375C25.3594 8.40625 25.6719 8.65625 25.8281 9.09375C25.9531 9.53125 25.8594 9.90625 25.5469 10.2188L20.3438 15.375L21.5625 22.6875C21.625 23.125 21.4688 23.4844 21.0938 23.7656C20.6875 24.0156 20.2969 24.0469 19.9219 23.8594L13.5 20.4375L7.03125 23.8594C6.65625 24.0469 6.28125 24.0156 5.90625 23.7656C5.53125 23.4844 5.35938 23.125 5.39062 22.6875L6.65625 15.375L1.45312 10.2188C1.14062 9.90625 1.04688 9.53125 1.17188 9.09375C1.32812 8.65625 1.625 8.40625 2.0625 8.34375L9.28125 7.26562L12.4688 0.65625C12.6875 0.25 13.0312 0.03125 13.5 0ZM13.5 3.70312L11.0156 8.76562C10.8594 9.10938 10.5781 9.32812 10.1719 9.42188L4.64062 10.2188L8.67188 14.2031C8.92188 14.4844 9.03125 14.8125 9 15.1875L8.01562 20.8125L12.9844 18.1875C13.3281 18 13.6719 18 14.0156 18.1875L18.9375 20.8125L18 15.1875C17.9375 14.8125 18.0469 14.4844 18.3281 14.2031L22.3594 10.2188L16.8281 9.42188C16.4219 9.32812 16.1406 9.10938 15.9844 8.76562L13.5 3.70312Z" fill="#323136"/>
</svg>
