<svg width="24" height="24" viewBox="0 0 24 24" fill="none" xmlns="http://www.w3.org/2000/svg">
<path d="M12 0C14.25 0.03125 16.2656 0.578125 18.0469 1.64062C19.8594 2.70313 21.2969 4.14062 22.3594 5.95312C23.4219 7.73438 23.9688 9.75 24 12C23.9688 14.25 23.4219 16.2656 22.3594 18.0469C21.2969 19.8594 19.8594 21.2969 18.0469 22.3594C16.2656 23.4219 14.25 23.9688 12 24C9.75 23.9688 7.73438 23.4219 5.95312 22.3594C4.14062 21.2969 2.70312 19.8594 1.64062 18.0469C0.578125 16.2656 0.03125 14.25 0 12C0.03125 9.46875 0.71875 7.21875 2.0625 5.25C2.5 4.71875 3.01562 4.625 3.60938 4.96875C4.14062 5.40625 4.25 5.92188 3.9375 6.51562C2.84375 8.10938 2.28125 9.9375 2.25 12C2.3125 14.75 3.26562 17.0469 5.10938 18.8906C6.95312 20.7344 9.25 21.6875 12 21.75C14.75 21.6875 17.0469 20.7344 18.8906 18.8906C20.7344 17.0469 21.6875 14.75 21.75 12C21.6875 9.4375 20.8594 7.26562 19.2656 5.48438C17.6406 3.70312 15.5938 2.64062 13.125 2.29688V4.875C13.0625 5.5625 12.6875 5.9375 12 6C11.3125 5.9375 10.9375 5.5625 10.875 4.875V1.125C10.9375 0.4375 11.3125 0.0625 12 0ZM9.04688 7.45312L12.7969 11.2031C13.2344 11.7344 13.2344 12.2656 12.7969 12.7969C12.2656 13.2344 11.7344 13.2344 11.2031 12.7969L7.45312 9.04688C7.01562 8.51562 7.01562 7.98438 7.45312 7.45312C7.98438 7.01562 8.51562 7.01562 9.04688 7.45312Z" fill="#FF6D49"/>
</svg>
